<?xml version="1.0" encoding="utf-8" standalone="no"?>
<!DOCTYPE svg PUBLIC "-//W3C//DTD SVG 1.1//EN"
  "http://www.w3.org/Graphics/SVG/1.1/DTD/svg11.dtd">
<svg xmlns:xlink="http://www.w3.org/1999/xlink" width="320.93pt" height="315.805313pt" viewBox="0 0 320.93 315.805313" xmlns="http://www.w3.org/2000/svg" version="1.1">
 <metadata>
  <rdf:RDF xmlns:dc="http://purl.org/dc/elements/1.1/" xmlns:cc="http://creativecommons.org/ns#" xmlns:rdf="http://www.w3.org/1999/02/22-rdf-syntax-ns#">
   <cc:Work>
    <dc:type rdf:resource="http://purl.org/dc/dcmitype/StillImage"/>
    <dc:date>2024-07-09T17:37:20.423532</dc:date>
    <dc:format>image/svg+xml</dc:format>
    <dc:creator>
     <cc:Agent>
      <dc:title>Matplotlib v3.7.1, https://matplotlib.org/</dc:title>
     </cc:Agent>
    </dc:creator>
   </cc:Work>
  </rdf:RDF>
 </metadata>
 <defs>
  <style type="text/css">*{stroke-linejoin: round; stroke-linecap: butt}</style>
 </defs>
 <g id="figure_1">
  <g id="patch_1">
   <path d="M 0 315.805313 
L 320.93 315.805313 
L 320.93 0 
L 0 0 
z
" style="fill: #ffffff"/>
  </g>
  <g id="axes_1">
   <g id="patch_2">
    <path d="M 62.63 256.68 
L 313.73 256.68 
L 313.73 7.2 
L 62.63 7.2 
z
" style="fill: #ffffff"/>
   </g>
   <g id="matplotlib.axis_1">
    <g id="xtick_1">
     <g id="line2d_1">
      <defs>
       <path id="m8c1d1e5b30" d="M 0 0 
L 0 3.5 
" style="stroke: #000000; stroke-width: 0.8"/>
      </defs>
      <g>
       <use xlink:href="#m8c1d1e5b30" x="87.74" y="256.68" style="stroke: #000000; stroke-width: 0.8"/>
      </g>
     </g>
     <g id="text_1">
      <!-- 800 -->
      <g transform="translate(73.49 276.706875) scale(0.19 -0.19)">
       <defs>
        <path id="Times-Roman-38" d="M 1609 106 
Q 1969 106 2153 306 
Q 2338 506 2338 806 
Q 2338 1147 2142 1358 
Q 1947 1569 1341 1997 
Q 1072 1828 950 1559 
Q 828 1291 828 1041 
Q 828 613 1048 359 
Q 1269 106 1609 106 
z
M 1650 2494 
Q 1944 2700 2056 2841 
Q 2250 3081 2250 3422 
Q 2250 3719 2067 3926 
Q 1884 4134 1513 4134 
Q 1225 4134 1037 3953 
Q 850 3772 850 3513 
Q 850 3219 1070 2967 
Q 1291 2716 1650 2494 
z
M 1169 2131 
Q 756 2463 606 2659 
Q 375 2959 375 3322 
Q 375 3734 717 4021 
Q 1059 4309 1606 4309 
Q 2109 4309 2406 4037 
Q 2703 3766 2703 3406 
Q 2703 3041 2400 2750 
Q 2225 2584 1834 2369 
Q 2366 1975 2595 1683 
Q 2825 1391 2825 994 
Q 2825 544 2486 237 
Q 2147 -69 1578 -69 
Q 1069 -69 705 214 
Q 341 497 341 959 
Q 341 1356 594 1659 
Q 759 1856 1169 2131 
z
" transform="scale(0.015625)"/>
        <path id="Times-Roman-30" d="M 1531 116 
Q 1991 116 2162 619 
Q 2334 1122 2334 2075 
Q 2334 2834 2231 3288 
Q 2038 4131 1506 4131 
Q 975 4131 778 3263 
Q 675 2800 675 2044 
Q 675 1334 781 909 
Q 981 116 1531 116 
z
M 1522 4300 
Q 2241 4300 2638 3547 
Q 2953 2938 2953 2147 
Q 2953 1525 2759 975 
Q 2394 -59 1494 -59 
Q 878 -59 481 500 
Q 56 1097 56 2122 
Q 56 2928 341 3509 
Q 725 4300 1522 4300 
z
" transform="scale(0.015625)"/>
       </defs>
       <use xlink:href="#Times-Roman-38"/>
       <use xlink:href="#Times-Roman-30" x="50"/>
       <use xlink:href="#Times-Roman-30" x="100"/>
      </g>
     </g>
    </g>
    <g id="xtick_2">
     <g id="line2d_2">
      <g>
       <use xlink:href="#m8c1d1e5b30" x="137.96" y="256.68" style="stroke: #000000; stroke-width: 0.8"/>
      </g>
     </g>
     <g id="text_2">
      <!-- 1000 -->
      <g transform="translate(118.96 276.706875) scale(0.19 -0.19)">
       <defs>
        <path id="Times-Roman-31" d="M 1894 4294 
Q 1906 4278 1907 4270 
Q 1909 4263 1909 4234 
L 1909 472 
Q 1909 231 2037 165 
Q 2166 100 2516 88 
L 2516 0 
L 753 0 
L 753 94 
Q 1131 113 1247 197 
Q 1363 281 1363 563 
L 1363 3456 
Q 1363 3606 1325 3684 
Q 1288 3763 1163 3763 
Q 1081 3763 951 3717 
Q 822 3672 709 3622 
L 709 3709 
L 1856 4294 
L 1894 4294 
z
" transform="scale(0.015625)"/>
       </defs>
       <use xlink:href="#Times-Roman-31"/>
       <use xlink:href="#Times-Roman-30" x="50"/>
       <use xlink:href="#Times-Roman-30" x="100"/>
       <use xlink:href="#Times-Roman-30" x="150"/>
      </g>
     </g>
    </g>
    <g id="xtick_3">
     <g id="line2d_3">
      <g>
       <use xlink:href="#m8c1d1e5b30" x="188.18" y="256.68" style="stroke: #000000; stroke-width: 0.8"/>
      </g>
     </g>
     <g id="text_3">
      <!-- 1200 -->
      <g transform="translate(169.18 276.706875) scale(0.19 -0.19)">
       <defs>
        <path id="Times-Roman-32" d="M 191 72 
Q 1334 1259 1743 1815 
Q 2153 2372 2153 2900 
Q 2153 3363 1903 3605 
Q 1653 3847 1306 3847 
Q 878 3847 613 3534 
Q 466 3363 331 3006 
L 197 3034 
Q 353 3753 726 4033 
Q 1100 4313 1528 4313 
Q 2056 4313 2382 3980 
Q 2709 3647 2709 3166 
Q 2709 2653 2356 2178 
Q 2003 1703 822 488 
L 2256 488 
Q 2556 488 2678 559 
Q 2800 631 2953 909 
L 3034 872 
L 2688 0 
L 191 0 
L 191 72 
z
" transform="scale(0.015625)"/>
       </defs>
       <use xlink:href="#Times-Roman-31"/>
       <use xlink:href="#Times-Roman-32" x="50"/>
       <use xlink:href="#Times-Roman-30" x="100"/>
       <use xlink:href="#Times-Roman-30" x="150"/>
      </g>
     </g>
    </g>
    <g id="xtick_4">
     <g id="line2d_4">
      <g>
       <use xlink:href="#m8c1d1e5b30" x="238.4" y="256.68" style="stroke: #000000; stroke-width: 0.8"/>
      </g>
     </g>
     <g id="text_4">
      <!-- 1400 -->
      <g transform="translate(219.4 276.706875) scale(0.19 -0.19)">
       <defs>
        <path id="Times-Roman-34" d="M 1866 3650 
L 331 1481 
L 1866 1481 
L 1866 3650 
z
M 2072 4294 
L 2369 4294 
L 2369 1481 
L 3022 1481 
L 3022 1066 
L 2369 1066 
L 2369 0 
L 1872 0 
L 1872 1066 
L 72 1066 
L 72 1481 
L 2072 4294 
z
" transform="scale(0.015625)"/>
       </defs>
       <use xlink:href="#Times-Roman-31"/>
       <use xlink:href="#Times-Roman-34" x="50"/>
       <use xlink:href="#Times-Roman-30" x="100"/>
       <use xlink:href="#Times-Roman-30" x="150"/>
      </g>
     </g>
    </g>
    <g id="xtick_5">
     <g id="line2d_5">
      <g>
       <use xlink:href="#m8c1d1e5b30" x="288.62" y="256.68" style="stroke: #000000; stroke-width: 0.8"/>
      </g>
     </g>
     <g id="text_5">
      <!-- 1600 -->
      <g transform="translate(269.62 276.706875) scale(0.19 -0.19)">
       <defs>
        <path id="Times-Roman-36" d="M 2994 1422 
Q 2994 850 2626 390 
Q 2259 -69 1672 -69 
Q 1122 -69 670 447 
Q 219 963 219 1819 
Q 219 2922 1094 3713 
Q 1875 4375 2850 4375 
L 2866 4272 
Q 2475 4200 2192 4076 
Q 1909 3953 1688 3731 
Q 1459 3506 1259 3159 
Q 1059 2813 984 2472 
Q 1178 2591 1319 2647 
Q 1569 2747 1822 2747 
Q 2319 2747 2656 2403 
Q 2994 2059 2994 1422 
z
M 2422 1181 
Q 2422 1597 2291 1919 
Q 2072 2456 1547 2456 
Q 1063 2456 903 2169 
Q 809 2000 809 1606 
Q 809 1097 1026 609 
Q 1244 122 1713 122 
Q 2084 122 2253 439 
Q 2422 756 2422 1181 
z
" transform="scale(0.015625)"/>
       </defs>
       <use xlink:href="#Times-Roman-31"/>
       <use xlink:href="#Times-Roman-36" x="50"/>
       <use xlink:href="#Times-Roman-30" x="100"/>
       <use xlink:href="#Times-Roman-30" x="150"/>
      </g>
     </g>
    </g>
    <g id="text_6">
     <!-- $\omega_c$ (cm$^{-1}$) -->
     <g transform="translate(139.12 303.813438) scale(0.22 -0.22)">
      <defs>
       <path id="DejaVuSans-Oblique-3c9" d="M 1369 -91 
Q 72 -91 434 1766 
Q 575 2500 1256 3500 
L 1875 3500 
Q 1231 2500 1088 1750 
Q 819 397 1519 397 
Q 2166 397 2478 2078 
L 3009 2078 
Q 2669 388 3316 397 
Q 4013 403 4275 1750 
Q 4419 2500 4169 3500 
L 4788 3500 
Q 5075 2500 4934 1766 
Q 4578 -94 3278 -91 
Q 2428 -88 2503 844 
Q 2194 -91 1369 -91 
z
" transform="scale(0.015625)"/>
       <path id="DejaVuSans-Oblique-63" d="M 3431 3366 
L 3316 2797 
Q 3109 2947 2876 3022 
Q 2644 3097 2394 3097 
Q 2119 3097 1870 3000 
Q 1622 2903 1453 2725 
Q 1184 2453 1037 2087 
Q 891 1722 891 1331 
Q 891 859 1127 628 
Q 1363 397 1844 397 
Q 2081 397 2348 469 
Q 2616 541 2906 684 
L 2797 116 
Q 2547 13 2283 -39 
Q 2019 -91 1741 -91 
Q 1044 -91 669 257 
Q 294 606 294 1253 
Q 294 1797 489 2255 
Q 684 2713 1069 3078 
Q 1331 3328 1684 3456 
Q 2038 3584 2456 3584 
Q 2700 3584 2940 3529 
Q 3181 3475 3431 3366 
z
" transform="scale(0.015625)"/>
       <path id="Times-Roman-20" transform="scale(0.015625)"/>
       <path id="Times-Roman-28" d="M 294 1606 
Q 294 2694 944 3516 
Q 1344 4019 1888 4325 
L 1947 4222 
Q 1444 3822 1228 3444 
Q 850 2784 850 1688 
Q 850 875 994 347 
Q 1247 -578 1947 -1038 
L 1866 -1141 
Q 1481 -956 1034 -419 
Q 294 472 294 1606 
z
" transform="scale(0.015625)"/>
       <path id="Times-Roman-63" d="M 1591 2947 
Q 1981 2947 2264 2745 
Q 2547 2544 2547 2303 
Q 2547 2200 2475 2111 
Q 2403 2022 2253 2022 
Q 2144 2022 2061 2097 
Q 1978 2172 1941 2316 
L 1903 2466 
Q 1863 2631 1763 2700 
Q 1659 2766 1491 2766 
Q 1134 2766 889 2455 
Q 644 2144 644 1628 
Q 644 1156 914 781 
Q 1184 406 1644 406 
Q 1969 406 2222 619 
Q 2366 741 2547 1006 
L 2634 953 
Q 2456 578 2259 359 
Q 1881 -59 1384 -59 
Q 897 -59 522 325 
Q 147 709 147 1369 
Q 147 2016 556 2481 
Q 966 2947 1591 2947 
z
M 1453 2947 
L 1453 2947 
z
" transform="scale(0.015625)"/>
       <path id="Times-Roman-6d" d="M 103 81 
Q 347 103 428 163 
Q 553 253 553 525 
L 553 2141 
Q 553 2372 492 2444 
Q 431 2516 291 2516 
Q 225 2516 192 2509 
Q 159 2503 116 2488 
L 116 2597 
L 341 2672 
Q 463 2713 741 2819 
Q 1019 2925 1034 2925 
Q 1050 2925 1053 2909 
Q 1056 2894 1056 2850 
L 1056 2428 
Q 1366 2709 1591 2817 
Q 1816 2925 2053 2925 
Q 2375 2925 2566 2706 
Q 2666 2588 2731 2384 
Q 2963 2619 3134 2731 
Q 3431 2925 3741 2925 
Q 4244 2925 4413 2516 
Q 4509 2284 4509 1784 
L 4509 488 
Q 4509 266 4607 186 
Q 4706 106 4963 81 
L 4963 0 
L 3553 0 
L 3553 88 
Q 3825 113 3911 197 
Q 3997 281 3997 541 
L 3997 1888 
Q 3997 2191 3931 2334 
Q 3816 2591 3478 2591 
Q 3275 2591 3075 2456 
Q 2959 2378 2791 2206 
L 2791 606 
Q 2791 353 2880 222 
Q 2969 91 3256 81 
L 3256 0 
L 1822 0 
L 1822 81 
Q 2119 119 2200 225 
Q 2281 331 2281 747 
L 2281 1622 
Q 2281 2103 2219 2284 
Q 2116 2591 1781 2591 
Q 1591 2591 1406 2486 
Q 1222 2381 1081 2213 
L 1081 503 
Q 1081 266 1164 175 
Q 1247 84 1525 81 
L 1525 0 
L 103 0 
L 103 81 
z
" transform="scale(0.015625)"/>
       <path id="DejaVuSans-2212" d="M 678 2272 
L 4684 2272 
L 4684 1741 
L 678 1741 
L 678 2272 
z
" transform="scale(0.015625)"/>
       <path id="DejaVuSans-31" d="M 794 531 
L 1825 531 
L 1825 4091 
L 703 3866 
L 703 4441 
L 1819 4666 
L 2450 4666 
L 2450 531 
L 3481 531 
L 3481 0 
L 794 0 
L 794 531 
z
" transform="scale(0.015625)"/>
       <path id="Times-Roman-29" d="M 1822 1575 
Q 1822 1109 1700 693 
Q 1578 278 1344 -91 
Q 1097 -484 684 -825 
Q 413 -1050 228 -1141 
L 169 -1038 
Q 650 -672 872 -291 
Q 1266 384 1266 1494 
Q 1266 2391 1084 2959 
Q 831 3763 169 4222 
L 250 4325 
Q 744 4050 1169 3494 
Q 1822 2638 1822 1575 
z
" transform="scale(0.015625)"/>
      </defs>
      <use xlink:href="#DejaVuSans-Oblique-3c9" transform="translate(0 0.684375)"/>
      <use xlink:href="#DejaVuSans-Oblique-63" transform="translate(83.740234 -15.721875) scale(0.7)"/>
      <use xlink:href="#Times-Roman-20" transform="translate(124.960938 0.684375)"/>
      <use xlink:href="#Times-Roman-28" transform="translate(149.960938 0.684375)"/>
      <use xlink:href="#Times-Roman-63" transform="translate(183.261719 0.684375)"/>
      <use xlink:href="#Times-Roman-6d" transform="translate(227.646484 0.684375)"/>
      <use xlink:href="#DejaVuSans-2212" transform="translate(306.386719 38.965625) scale(0.7)"/>
      <use xlink:href="#DejaVuSans-31" transform="translate(365.039062 38.965625) scale(0.7)"/>
      <use xlink:href="#Times-Roman-29" transform="translate(412.30957 0.684375)"/>
     </g>
    </g>
   </g>
   <g id="matplotlib.axis_2">
    <g id="ytick_1">
     <g id="line2d_6">
      <defs>
       <path id="m632e5ff32b" d="M 0 0 
L -3.5 0 
" style="stroke: #000000; stroke-width: 0.8"/>
      </defs>
      <g>
       <use xlink:href="#m632e5ff32b" x="62.63" y="187.857931" style="stroke: #000000; stroke-width: 0.8"/>
      </g>
     </g>
     <g id="text_7">
      <!-- 0.8 -->
      <g transform="translate(31.88 194.371369) scale(0.19 -0.19)">
       <defs>
        <path id="Times-Roman-2e" d="M 1044 -75 
Q 894 -75 791 29 
Q 688 134 688 281 
Q 688 428 792 531 
Q 897 634 1044 634 
Q 1191 634 1294 531 
Q 1397 428 1397 281 
Q 1397 134 1295 29 
Q 1194 -75 1044 -75 
z
" transform="scale(0.015625)"/>
       </defs>
       <use xlink:href="#Times-Roman-30"/>
       <use xlink:href="#Times-Roman-2e" x="50"/>
       <use xlink:href="#Times-Roman-38" x="75"/>
      </g>
     </g>
    </g>
    <g id="ytick_2">
     <g id="line2d_7">
      <g>
       <use xlink:href="#m632e5ff32b" x="62.63" y="101.830345" style="stroke: #000000; stroke-width: 0.8"/>
      </g>
     </g>
     <g id="text_8">
      <!-- 0.9 -->
      <g transform="translate(31.88 108.343782) scale(0.19 -0.19)">
       <defs>
        <path id="Times-Roman-39" d="M 1597 1791 
Q 1809 1791 2036 1909 
Q 2263 2028 2294 2109 
Q 2306 2141 2315 2342 
Q 2325 2544 2325 2669 
Q 2325 3319 2106 3725 
Q 1888 4131 1466 4131 
Q 1159 4131 970 3853 
Q 781 3575 781 3022 
Q 781 2566 957 2178 
Q 1134 1791 1597 1791 
z
M 1509 4309 
Q 2197 4309 2572 3761 
Q 2947 3213 2947 2538 
Q 2947 2063 2769 1572 
Q 2591 1081 2250 697 
Q 1853 253 1244 38 
Q 903 -84 384 -150 
L 353 -25 
Q 678 50 894 134 
Q 1281 288 1516 509 
Q 1847 825 2045 1214 
Q 2244 1603 2294 1866 
L 2184 1784 
Q 1953 1609 1641 1544 
Q 1478 1506 1344 1506 
Q 813 1506 502 1882 
Q 191 2259 191 2781 
Q 191 3447 561 3878 
Q 931 4309 1509 4309 
z
" transform="scale(0.015625)"/>
       </defs>
       <use xlink:href="#Times-Roman-30"/>
       <use xlink:href="#Times-Roman-2e" x="50"/>
       <use xlink:href="#Times-Roman-39" x="75"/>
      </g>
     </g>
    </g>
    <g id="ytick_3">
     <g id="line2d_8">
      <g>
       <use xlink:href="#m632e5ff32b" x="62.63" y="15.802759" style="stroke: #000000; stroke-width: 0.8"/>
      </g>
     </g>
     <g id="text_9">
      <!-- 1.0 -->
      <g transform="translate(31.88 22.316196) scale(0.19 -0.19)">
       <use xlink:href="#Times-Roman-31"/>
       <use xlink:href="#Times-Roman-2e" x="50"/>
       <use xlink:href="#Times-Roman-30" x="75"/>
      </g>
     </g>
    </g>
    <g id="text_10">
     <!-- $k/k_0$ -->
     <g transform="translate(23.088125 153.61) rotate(-90) scale(0.22 -0.22)">
      <defs>
       <path id="DejaVuSans-Oblique-6b" d="M 1172 4863 
L 1747 4863 
L 1197 2028 
L 3169 3500 
L 3916 3500 
L 1716 1825 
L 3322 0 
L 2625 0 
L 1131 1709 
L 800 0 
L 225 0 
L 1172 4863 
z
" transform="scale(0.015625)"/>
       <path id="DejaVuSans-2f" d="M 1625 4666 
L 2156 4666 
L 531 -594 
L 0 -594 
L 1625 4666 
z
" transform="scale(0.015625)"/>
       <path id="DejaVuSans-30" d="M 2034 4250 
Q 1547 4250 1301 3770 
Q 1056 3291 1056 2328 
Q 1056 1369 1301 889 
Q 1547 409 2034 409 
Q 2525 409 2770 889 
Q 3016 1369 3016 2328 
Q 3016 3291 2770 3770 
Q 2525 4250 2034 4250 
z
M 2034 4750 
Q 2819 4750 3233 4129 
Q 3647 3509 3647 2328 
Q 3647 1150 3233 529 
Q 2819 -91 2034 -91 
Q 1250 -91 836 529 
Q 422 1150 422 2328 
Q 422 3509 836 4129 
Q 1250 4750 2034 4750 
z
" transform="scale(0.015625)"/>
      </defs>
      <use xlink:href="#DejaVuSans-Oblique-6b" transform="translate(0 0.015625)"/>
      <use xlink:href="#DejaVuSans-2f" transform="translate(57.910156 0.015625)"/>
      <use xlink:href="#DejaVuSans-Oblique-6b" transform="translate(91.601562 0.015625)"/>
      <use xlink:href="#DejaVuSans-30" transform="translate(149.511719 -16.390625) scale(0.7)"/>
     </g>
    </g>
   </g>
   <g id="line2d_9">
    <path d="M 62.63 15.802759 
L 313.73 15.802759 
" clip-path="url(#p5397945587)" style="fill: none; stroke: #000000; stroke-opacity: 0.6; stroke-width: 3; stroke-linecap: square"/>
   </g>
   <g id="line2d_10">
    <path d="M 62.63 24.010507 
L 72.741409 24.934847 
L 81.167584 25.88877 
L 89.593758 27.07059 
L 96.334698 28.234695 
L 103.075638 29.65694 
L 108.131342 30.942221 
L 113.187047 32.467193 
L 118.242752 34.295079 
L 121.613221 35.722779 
L 124.983691 37.354537 
L 128.354161 39.230031 
L 131.724631 41.398592 
L 135.095101 43.921718 
L 138.46557 46.8765 
L 141.83604 50.359445 
L 143.521275 52.335924 
L 145.20651 54.492103 
L 146.891745 56.848051 
L 148.57698 59.425836 
L 150.262215 62.250133 
L 151.94745 65.347747 
L 153.632685 68.747948 
L 155.317919 72.482183 
L 157.003154 76.583164 
L 158.688389 81.08447 
L 160.373624 86.018434 
L 162.058859 91.413783 
L 163.744094 97.291938 
L 165.429329 103.662119 
L 168.799799 117.806872 
L 173.855503 141.283267 
L 175.540738 148.991459 
L 177.225973 156.149615 
L 178.911208 162.378227 
L 180.596443 167.281664 
L 182.281678 170.495592 
L 183.966913 171.744783 
L 185.652148 170.893648 
L 187.337383 167.974647 
L 189.022617 163.183784 
L 190.707852 156.845628 
L 192.393087 149.358947 
L 195.763557 132.564228 
L 199.134027 115.564308 
L 202.504497 100.036693 
L 204.189732 93.067512 
L 205.874966 86.66604 
L 207.560201 80.82508 
L 209.245436 75.520453 
L 210.930671 70.718049 
L 212.615906 66.378559 
L 214.301141 62.461589 
L 215.986376 58.926625 
L 217.671611 55.735755 
L 219.356846 52.853491 
L 221.042081 50.247197 
L 222.727315 47.887587 
L 224.41255 45.748315 
L 226.097785 43.805773 
L 229.468255 40.429363 
L 232.838725 37.617562 
L 236.209195 35.25992 
L 239.579664 33.26972 
L 242.950134 31.578684 
L 246.320604 30.132958 
L 249.691074 28.889621 
L 254.746779 27.331011 
L 259.802483 26.063226 
L 264.858188 25.020995 
L 271.599128 23.900497 
L 278.340067 23.013188 
L 286.766242 22.145181 
L 296.877651 21.357455 
L 308.674295 20.679456 
L 313.73 20.446131 
L 313.73 20.446131 
" clip-path="url(#p5397945587)" style="fill: none; stroke: #0000ff; stroke-opacity: 0.9; stroke-width: 3; stroke-linecap: square"/>
   </g>
   <g id="line2d_11">
    <path d="M 62.63 23.215522 
L 76.111879 24.301444 
L 89.593758 25.831111 
L 98.019933 27.146305 
L 103.075638 28.089629 
L 108.131342 29.184387 
L 113.187047 30.513389 
L 118.242752 32.084374 
L 123.298456 33.99383 
L 128.354161 36.371789 
L 131.724631 38.27202 
L 135.095101 40.461588 
L 138.46557 43.04567 
L 141.83604 46.088279 
L 145.20651 49.75981 
L 146.891745 51.808181 
L 148.57698 54.084515 
L 150.262215 56.588841 
L 151.94745 59.34188 
L 153.632685 62.33819 
L 155.317919 65.706235 
L 157.003154 69.401631 
L 158.688389 73.454174 
L 160.373624 77.923397 
L 162.058859 82.828457 
L 163.744094 88.194642 
L 165.429329 94.070473 
L 168.799799 107.252296 
L 172.170268 121.995191 
L 175.540738 137.090617 
L 177.225973 144.132937 
L 178.911208 150.300304 
L 180.596443 155.234863 
L 182.281678 158.51367 
L 183.966913 159.853915 
L 185.652148 159.099741 
L 187.337383 156.277333 
L 189.022617 151.59619 
L 190.707852 145.388479 
L 192.393087 138.078013 
L 195.763557 121.831315 
L 199.134027 105.638063 
L 202.504497 91.058163 
L 204.189732 84.591963 
L 205.874966 78.696208 
L 207.560201 73.333157 
L 209.245436 68.508533 
L 210.930671 64.156247 
L 212.615906 60.25087 
L 214.301141 56.734378 
L 215.986376 53.565324 
L 217.671611 50.725075 
L 219.356846 48.188171 
L 221.042081 45.871043 
L 222.727315 43.77397 
L 226.097785 40.18869 
L 229.468255 37.232679 
L 232.838725 34.794983 
L 236.209195 32.734192 
L 239.579664 31.028127 
L 242.950134 29.546858 
L 248.005839 27.748571 
L 251.376309 26.756972 
L 256.432013 25.507402 
L 259.802483 24.821092 
L 266.543423 23.658822 
L 273.284362 22.742989 
L 281.710537 21.881554 
L 301.933356 20.531234 
L 310.35953 20.149164 
L 313.73 20.020744 
L 313.73 20.020744 
" clip-path="url(#p5397945587)" style="fill: none; stroke: #008000; stroke-opacity: 0.9; stroke-width: 3; stroke-linecap: square"/>
   </g>
   <g id="line2d_12">
    <path d="M 62.63 21.930761 
L 66.00047 22.056364 
L 72.741409 22.474542 
L 82.852819 23.221645 
L 91.278993 24.034012 
L 96.334698 24.594422 
L 108.131342 26.331538 
L 116.557517 28.069788 
L 123.298456 29.946675 
L 124.983691 30.472279 
L 131.724631 33.138284 
L 135.095101 34.8658 
L 136.780336 35.725364 
L 140.150805 37.925018 
L 143.521275 40.454929 
L 145.20651 41.893 
L 146.891745 43.520327 
L 150.262215 47.237786 
L 151.94745 49.403264 
L 153.632685 51.778451 
L 155.317919 54.435345 
L 157.003154 57.354951 
L 158.688389 60.6284 
L 160.373624 64.197036 
L 162.058859 68.274873 
L 163.744094 72.714628 
L 165.429329 77.601941 
L 167.114564 83.012466 
L 168.799799 88.893619 
L 172.170268 101.891277 
L 177.225973 122.405497 
L 178.911208 128.375807 
L 180.596443 133.254125 
L 182.281678 136.598188 
L 183.966913 138.072446 
L 185.652148 137.501592 
L 187.337383 134.896274 
L 189.022617 130.47229 
L 190.707852 124.616079 
L 192.393087 117.743339 
L 199.134027 88.296274 
L 200.819262 81.673712 
L 202.504497 75.609132 
L 204.189732 70.106624 
L 205.874966 65.181509 
L 207.560201 60.75453 
L 209.245436 56.779646 
L 210.930671 53.272356 
L 212.615906 50.090567 
L 214.301141 47.299771 
L 215.986376 44.79782 
L 217.671611 42.562673 
L 221.042081 38.777086 
L 222.727315 37.161082 
L 224.41255 35.71612 
L 227.78302 33.218777 
L 231.15349 31.190741 
L 234.52396 29.463084 
L 237.89443 28.07447 
L 242.950134 26.372265 
L 249.691074 24.640531 
L 258.117248 23.125243 
L 263.172953 22.426492 
L 269.913893 21.667362 
L 273.284362 21.348715 
L 283.395772 20.603984 
L 290.136711 20.27685 
L 296.877651 19.91467 
L 301.933356 19.748638 
L 313.73 19.400057 
L 313.73 19.400057 
" clip-path="url(#p5397945587)" style="fill: none; stroke: #ff0000; stroke-opacity: 0.9; stroke-width: 3; stroke-linecap: square"/>
   </g>
   <g id="line2d_13">
    <path d="M 62.63 20.721381 
L 66.00047 20.901025 
L 89.593758 22.173281 
L 103.075638 23.358531 
L 111.501812 24.451756 
L 118.242752 25.621829 
L 119.927987 25.90589 
L 123.298456 26.650834 
L 130.039396 28.446985 
L 135.095101 30.314043 
L 136.780336 30.966828 
L 141.83604 33.460819 
L 145.20651 35.556098 
L 148.57698 38.166016 
L 150.262215 39.591889 
L 153.632685 43.07951 
L 155.317919 45.158127 
L 157.003154 47.436832 
L 158.688389 49.973467 
L 160.373624 52.834684 
L 162.058859 56.016153 
L 163.744094 59.618928 
L 165.429329 63.630439 
L 167.114564 68.040232 
L 168.799799 73.007707 
L 170.485034 78.377698 
L 173.855503 90.229193 
L 177.225973 102.564639 
L 178.911208 108.192205 
L 180.596443 112.890512 
L 182.281678 116.202064 
L 183.966913 117.785054 
L 185.652148 117.400665 
L 187.337383 115.032317 
L 189.022617 110.954022 
L 190.707852 105.520943 
L 192.393087 99.252653 
L 197.448792 79.250506 
L 199.134027 73.16602 
L 200.819262 67.55003 
L 202.504497 62.475306 
L 204.189732 57.952137 
L 205.874966 53.919691 
L 207.560201 50.273589 
L 209.245436 47.14441 
L 210.930671 44.359398 
L 212.615906 41.896371 
L 215.986376 37.778215 
L 217.671611 36.011202 
L 221.042081 33.194912 
L 224.41255 30.82741 
L 227.78302 28.990689 
L 229.468255 28.163957 
L 232.838725 26.774353 
L 237.89443 25.133814 
L 244.635369 23.544311 
L 254.746779 21.930227 
L 268.228658 20.590888 
L 269.913893 20.534624 
L 273.284362 20.258744 
L 286.766242 19.559017 
L 313.73 18.801824 
L 313.73 18.801824 
" clip-path="url(#p5397945587)" style="fill: none; stroke: #8a2be2; stroke-opacity: 0.9; stroke-width: 3; stroke-linecap: square"/>
   </g>
   <g id="line2d_14">
    <path d="M 62.63 19.972576 
L 71.056174 20.236668 
L 72.741409 20.373495 
L 77.797114 20.414134 
L 79.482349 20.613032 
L 81.167584 20.604935 
L 82.852819 20.761869 
L 86.223289 20.919159 
L 101.390403 21.822449 
L 108.131342 22.369345 
L 109.816577 22.673914 
L 113.187047 22.848168 
L 114.872282 23.162823 
L 118.242752 23.596123 
L 128.354161 25.397128 
L 135.095101 27.092841 
L 140.150805 28.844725 
L 145.20651 31.129635 
L 148.57698 33.109438 
L 150.262215 34.223689 
L 151.94745 35.471166 
L 153.632685 36.898076 
L 155.317919 38.48265 
L 158.688389 42.287079 
L 160.373624 44.581189 
L 162.058859 47.099882 
L 163.744094 49.996463 
L 165.429329 53.24542 
L 167.114564 56.966361 
L 168.799799 60.968921 
L 170.485034 65.509997 
L 173.855503 75.752338 
L 178.911208 92.017292 
L 180.596443 96.438337 
L 182.281678 99.670661 
L 183.966913 101.274179 
L 185.652148 101.033037 
L 187.337383 98.920106 
L 189.022617 95.176386 
L 190.707852 90.232903 
L 194.078322 78.525907 
L 197.448792 66.878543 
L 199.134027 61.691258 
L 200.819262 56.924852 
L 202.504497 52.75892 
L 204.189732 48.988882 
L 205.874966 45.675815 
L 207.560201 42.822414 
L 209.245436 40.292286 
L 210.930671 38.066652 
L 214.301141 34.401612 
L 215.986376 32.874721 
L 217.671611 31.526611 
L 221.042081 29.352797 
L 224.41255 27.564811 
L 227.78302 26.105759 
L 232.838725 24.457124 
L 239.579664 22.893705 
L 248.005839 21.525824 
L 263.172953 20.134333 
L 269.913893 19.750297 
L 278.340067 19.327977 
L 280.025302 19.364066 
L 286.766242 19.082101 
L 298.562886 18.843548 
L 301.933356 18.771349 
L 310.35953 18.588348 
L 312.044765 18.543516 
L 313.73 18.636014 
L 313.73 18.636014 
" clip-path="url(#p5397945587)" style="fill: none; stroke: #ff8c00; stroke-opacity: 0.9; stroke-width: 3; stroke-linecap: square"/>
   </g>
   <g id="patch_3">
    <path d="M 62.63 256.68 
L 62.63 7.2 
" style="fill: none; stroke: #000000; stroke-width: 0.8; stroke-linejoin: miter; stroke-linecap: square"/>
   </g>
   <g id="patch_4">
    <path d="M 313.73 256.68 
L 313.73 7.2 
" style="fill: none; stroke: #000000; stroke-width: 0.8; stroke-linejoin: miter; stroke-linecap: square"/>
   </g>
   <g id="patch_5">
    <path d="M 62.63 256.68 
L 313.73 256.68 
" style="fill: none; stroke: #000000; stroke-width: 0.8; stroke-linejoin: miter; stroke-linecap: square"/>
   </g>
   <g id="patch_6">
    <path d="M 62.63 7.2 
L 313.73 7.2 
" style="fill: none; stroke: #000000; stroke-width: 0.8; stroke-linejoin: miter; stroke-linecap: square"/>
   </g>
   <g id="legend_1">
    <g id="text_11">
     <!-- $\sigma$ (cm$^{-1}$) -->
     <g transform="translate(76.13 156.076875) scale(0.15 -0.15)">
      <defs>
       <path id="DejaVuSans-Oblique-3c3" d="M 2219 3044 
Q 1744 3044 1422 2700 
Q 1081 2341 969 1747 
Q 844 1119 1044 756 
Q 1241 397 1706 397 
Q 2166 397 2503 759 
Q 2844 1122 2966 1747 
Q 3075 2319 2881 2700 
Q 2700 3044 2219 3044 
z
M 2309 3503 
L 4219 3500 
L 4106 2925 
L 3463 2925 
Q 3706 2438 3575 1747 
Q 3406 888 2884 400 
Q 2359 -91 1609 -91 
Q 856 -91 525 400 
Q 194 888 363 1747 
Q 528 2609 1050 3097 
Q 1484 3503 2309 3503 
z
" transform="scale(0.015625)"/>
      </defs>
      <use xlink:href="#DejaVuSans-Oblique-3c3" transform="translate(0 0.684375)"/>
      <use xlink:href="#Times-Roman-20" transform="translate(63.378906 0.684375)"/>
      <use xlink:href="#Times-Roman-28" transform="translate(88.378906 0.684375)"/>
      <use xlink:href="#Times-Roman-63" transform="translate(121.679688 0.684375)"/>
      <use xlink:href="#Times-Roman-6d" transform="translate(166.064453 0.684375)"/>
      <use xlink:href="#DejaVuSans-2212" transform="translate(244.804688 38.965625) scale(0.7)"/>
      <use xlink:href="#DejaVuSans-31" transform="translate(303.457031 38.965625) scale(0.7)"/>
      <use xlink:href="#Times-Roman-29" transform="translate(350.727539 0.684375)"/>
     </g>
    </g>
    <g id="line2d_15">
     <path d="M 84.005 167.594063 
L 91.505 167.594063 
L 99.005 167.594063 
" style="fill: none; stroke: #0000ff; stroke-opacity: 0.9; stroke-width: 3; stroke-linecap: square"/>
    </g>
    <g id="text_12">
     <!-- 0 -->
     <g transform="translate(111.005 172.844063) scale(0.15 -0.15)">
      <use xlink:href="#Times-Roman-30"/>
     </g>
    </g>
    <g id="line2d_16">
     <path d="M 84.005 184.36125 
L 91.505 184.36125 
L 99.005 184.36125 
" style="fill: none; stroke: #008000; stroke-opacity: 0.9; stroke-width: 3; stroke-linecap: square"/>
    </g>
    <g id="text_13">
     <!-- 10 -->
     <g transform="translate(111.005 189.61125) scale(0.15 -0.15)">
      <use xlink:href="#Times-Roman-31"/>
      <use xlink:href="#Times-Roman-30" x="50"/>
     </g>
    </g>
    <g id="line2d_17">
     <path d="M 84.005 201.128438 
L 91.505 201.128438 
L 99.005 201.128438 
" style="fill: none; stroke: #ff0000; stroke-opacity: 0.9; stroke-width: 3; stroke-linecap: square"/>
    </g>
    <g id="text_14">
     <!-- 20 -->
     <g transform="translate(111.005 206.378438) scale(0.15 -0.15)">
      <use xlink:href="#Times-Roman-32"/>
      <use xlink:href="#Times-Roman-30" x="50"/>
     </g>
    </g>
    <g id="line2d_18">
     <path d="M 84.005 217.895625 
L 91.505 217.895625 
L 99.005 217.895625 
" style="fill: none; stroke: #8a2be2; stroke-opacity: 0.9; stroke-width: 3; stroke-linecap: square"/>
    </g>
    <g id="text_15">
     <!-- 30 -->
     <g transform="translate(111.005 223.145625) scale(0.15 -0.15)">
      <defs>
       <path id="Times-Roman-33" d="M 497 544 
Q 669 544 951 366 
Q 1234 188 1431 188 
Q 1869 188 2081 483 
Q 2294 778 2294 1125 
Q 2294 1459 2122 1713 
Q 1831 2141 1141 2141 
Q 1100 2141 1062 2139 
Q 1025 2138 975 2131 
L 969 2213 
Q 1469 2394 1756 2628 
Q 2044 2863 2044 3247 
Q 2044 3588 1817 3766 
Q 1591 3944 1300 3944 
Q 956 3944 694 3691 
Q 550 3553 384 3266 
L 288 3288 
Q 413 3763 753 4047 
Q 1094 4331 1541 4331 
Q 2019 4331 2280 4068 
Q 2541 3806 2541 3463 
Q 2541 3159 2325 2906 
Q 2203 2763 1947 2584 
Q 2247 2456 2428 2284 
Q 2769 1956 2769 1453 
Q 2769 859 2301 406 
Q 1834 -47 972 -47 
Q 588 -47 433 67 
Q 278 181 278 313 
Q 278 394 329 469 
Q 381 544 497 544 
z
" transform="scale(0.015625)"/>
      </defs>
      <use xlink:href="#Times-Roman-33"/>
      <use xlink:href="#Times-Roman-30" x="50"/>
     </g>
    </g>
    <g id="line2d_19">
     <path d="M 84.005 234.662813 
L 91.505 234.662813 
L 99.005 234.662813 
" style="fill: none; stroke: #ff8c00; stroke-opacity: 0.9; stroke-width: 3; stroke-linecap: square"/>
    </g>
    <g id="text_16">
     <!-- 40 -->
     <g transform="translate(111.005 239.912813) scale(0.15 -0.15)">
      <use xlink:href="#Times-Roman-34"/>
      <use xlink:href="#Times-Roman-30" x="50"/>
     </g>
    </g>
   </g>
  </g>
 </g>
 <defs>
  <clipPath id="p5397945587">
   <rect x="62.63" y="7.2" width="251.1" height="249.48"/>
  </clipPath>
 </defs>
</svg>
