<?xml version="1.0" encoding="utf-8" standalone="no"?>
<!DOCTYPE svg PUBLIC "-//W3C//DTD SVG 1.1//EN"
  "http://www.w3.org/Graphics/SVG/1.1/DTD/svg11.dtd">
<svg xmlns:xlink="http://www.w3.org/1999/xlink" width="324.67pt" height="322.31875pt" viewBox="0 0 324.67 322.31875" xmlns="http://www.w3.org/2000/svg" version="1.1">
 <metadata>
  <rdf:RDF xmlns:dc="http://purl.org/dc/elements/1.1/" xmlns:cc="http://creativecommons.org/ns#" xmlns:rdf="http://www.w3.org/1999/02/22-rdf-syntax-ns#">
   <cc:Work>
    <dc:type rdf:resource="http://purl.org/dc/dcmitype/StillImage"/>
    <dc:date>2024-07-15T15:34:17.212674</dc:date>
    <dc:format>image/svg+xml</dc:format>
    <dc:creator>
     <cc:Agent>
      <dc:title>Matplotlib v3.7.1, https://matplotlib.org/</dc:title>
     </cc:Agent>
    </dc:creator>
   </cc:Work>
  </rdf:RDF>
 </metadata>
 <defs>
  <style type="text/css">*{stroke-linejoin: round; stroke-linecap: butt}</style>
 </defs>
 <g id="figure_1">
  <g id="patch_1">
   <path d="M -0 322.31875 
L 324.67 322.31875 
L 324.67 0 
L -0 0 
z
" style="fill: #ffffff"/>
  </g>
  <g id="axes_1">
   <g id="patch_2">
    <path d="M 66.37 263.193437 
L 317.47 263.193437 
L 317.47 13.713437 
L 66.37 13.713437 
z
" style="fill: #ffffff"/>
   </g>
   <g id="matplotlib.axis_1">
    <g id="xtick_1">
     <g id="line2d_1">
      <defs>
       <path id="md88ba087d9" d="M 0 0 
L 0 3.5 
" style="stroke: #000000; stroke-width: 0.8"/>
      </defs>
      <g>
       <use xlink:href="#md88ba087d9" x="108.22" y="263.193437" style="stroke: #000000; stroke-width: 0.8"/>
      </g>
     </g>
     <g id="text_1">
      <!-- 1160 -->
      <g transform="translate(89.22 283.220312) scale(0.19 -0.19)">
       <defs>
        <path id="Times-Roman-31" d="M 1894 4294 
Q 1906 4278 1907 4270 
Q 1909 4263 1909 4234 
L 1909 472 
Q 1909 231 2037 165 
Q 2166 100 2516 88 
L 2516 0 
L 753 0 
L 753 94 
Q 1131 113 1247 197 
Q 1363 281 1363 563 
L 1363 3456 
Q 1363 3606 1325 3684 
Q 1288 3763 1163 3763 
Q 1081 3763 951 3717 
Q 822 3672 709 3622 
L 709 3709 
L 1856 4294 
L 1894 4294 
z
" transform="scale(0.015625)"/>
        <path id="Times-Roman-36" d="M 2994 1422 
Q 2994 850 2626 390 
Q 2259 -69 1672 -69 
Q 1122 -69 670 447 
Q 219 963 219 1819 
Q 219 2922 1094 3713 
Q 1875 4375 2850 4375 
L 2866 4272 
Q 2475 4200 2192 4076 
Q 1909 3953 1688 3731 
Q 1459 3506 1259 3159 
Q 1059 2813 984 2472 
Q 1178 2591 1319 2647 
Q 1569 2747 1822 2747 
Q 2319 2747 2656 2403 
Q 2994 2059 2994 1422 
z
M 2422 1181 
Q 2422 1597 2291 1919 
Q 2072 2456 1547 2456 
Q 1063 2456 903 2169 
Q 809 2000 809 1606 
Q 809 1097 1026 609 
Q 1244 122 1713 122 
Q 2084 122 2253 439 
Q 2422 756 2422 1181 
z
" transform="scale(0.015625)"/>
        <path id="Times-Roman-30" d="M 1531 116 
Q 1991 116 2162 619 
Q 2334 1122 2334 2075 
Q 2334 2834 2231 3288 
Q 2038 4131 1506 4131 
Q 975 4131 778 3263 
Q 675 2800 675 2044 
Q 675 1334 781 909 
Q 981 116 1531 116 
z
M 1522 4300 
Q 2241 4300 2638 3547 
Q 2953 2938 2953 2147 
Q 2953 1525 2759 975 
Q 2394 -59 1494 -59 
Q 878 -59 481 500 
Q 56 1097 56 2122 
Q 56 2928 341 3509 
Q 725 4300 1522 4300 
z
" transform="scale(0.015625)"/>
       </defs>
       <use xlink:href="#Times-Roman-31"/>
       <use xlink:href="#Times-Roman-31" x="50"/>
       <use xlink:href="#Times-Roman-36" x="100"/>
       <use xlink:href="#Times-Roman-30" x="150"/>
      </g>
     </g>
    </g>
    <g id="xtick_2">
     <g id="line2d_2">
      <g>
       <use xlink:href="#md88ba087d9" x="191.92" y="263.193437" style="stroke: #000000; stroke-width: 0.8"/>
      </g>
     </g>
     <g id="text_2">
      <!-- 1180 -->
      <g transform="translate(172.92 283.220312) scale(0.19 -0.19)">
       <defs>
        <path id="Times-Roman-38" d="M 1609 106 
Q 1969 106 2153 306 
Q 2338 506 2338 806 
Q 2338 1147 2142 1358 
Q 1947 1569 1341 1997 
Q 1072 1828 950 1559 
Q 828 1291 828 1041 
Q 828 613 1048 359 
Q 1269 106 1609 106 
z
M 1650 2494 
Q 1944 2700 2056 2841 
Q 2250 3081 2250 3422 
Q 2250 3719 2067 3926 
Q 1884 4134 1513 4134 
Q 1225 4134 1037 3953 
Q 850 3772 850 3513 
Q 850 3219 1070 2967 
Q 1291 2716 1650 2494 
z
M 1169 2131 
Q 756 2463 606 2659 
Q 375 2959 375 3322 
Q 375 3734 717 4021 
Q 1059 4309 1606 4309 
Q 2109 4309 2406 4037 
Q 2703 3766 2703 3406 
Q 2703 3041 2400 2750 
Q 2225 2584 1834 2369 
Q 2366 1975 2595 1683 
Q 2825 1391 2825 994 
Q 2825 544 2486 237 
Q 2147 -69 1578 -69 
Q 1069 -69 705 214 
Q 341 497 341 959 
Q 341 1356 594 1659 
Q 759 1856 1169 2131 
z
" transform="scale(0.015625)"/>
       </defs>
       <use xlink:href="#Times-Roman-31"/>
       <use xlink:href="#Times-Roman-31" x="50"/>
       <use xlink:href="#Times-Roman-38" x="100"/>
       <use xlink:href="#Times-Roman-30" x="150"/>
      </g>
     </g>
    </g>
    <g id="xtick_3">
     <g id="line2d_3">
      <g>
       <use xlink:href="#md88ba087d9" x="275.62" y="263.193437" style="stroke: #000000; stroke-width: 0.8"/>
      </g>
     </g>
     <g id="text_3">
      <!-- 1200 -->
      <g transform="translate(256.62 283.220312) scale(0.19 -0.19)">
       <defs>
        <path id="Times-Roman-32" d="M 191 72 
Q 1334 1259 1743 1815 
Q 2153 2372 2153 2900 
Q 2153 3363 1903 3605 
Q 1653 3847 1306 3847 
Q 878 3847 613 3534 
Q 466 3363 331 3006 
L 197 3034 
Q 353 3753 726 4033 
Q 1100 4313 1528 4313 
Q 2056 4313 2382 3980 
Q 2709 3647 2709 3166 
Q 2709 2653 2356 2178 
Q 2003 1703 822 488 
L 2256 488 
Q 2556 488 2678 559 
Q 2800 631 2953 909 
L 3034 872 
L 2688 0 
L 191 0 
L 191 72 
z
" transform="scale(0.015625)"/>
       </defs>
       <use xlink:href="#Times-Roman-31"/>
       <use xlink:href="#Times-Roman-32" x="50"/>
       <use xlink:href="#Times-Roman-30" x="100"/>
       <use xlink:href="#Times-Roman-30" x="150"/>
      </g>
     </g>
    </g>
    <g id="text_4">
     <!-- $\omega$ (cm$^{-1}$) -->
     <g transform="translate(147.37 310.326875) scale(0.22 -0.22)">
      <defs>
       <path id="DejaVuSans-Oblique-3c9" d="M 1369 -91 
Q 72 -91 434 1766 
Q 575 2500 1256 3500 
L 1875 3500 
Q 1231 2500 1088 1750 
Q 819 397 1519 397 
Q 2166 397 2478 2078 
L 3009 2078 
Q 2669 388 3316 397 
Q 4013 403 4275 1750 
Q 4419 2500 4169 3500 
L 4788 3500 
Q 5075 2500 4934 1766 
Q 4578 -94 3278 -91 
Q 2428 -88 2503 844 
Q 2194 -91 1369 -91 
z
" transform="scale(0.015625)"/>
       <path id="Times-Roman-20" transform="scale(0.015625)"/>
       <path id="Times-Roman-28" d="M 294 1606 
Q 294 2694 944 3516 
Q 1344 4019 1888 4325 
L 1947 4222 
Q 1444 3822 1228 3444 
Q 850 2784 850 1688 
Q 850 875 994 347 
Q 1247 -578 1947 -1038 
L 1866 -1141 
Q 1481 -956 1034 -419 
Q 294 472 294 1606 
z
" transform="scale(0.015625)"/>
       <path id="Times-Roman-63" d="M 1591 2947 
Q 1981 2947 2264 2745 
Q 2547 2544 2547 2303 
Q 2547 2200 2475 2111 
Q 2403 2022 2253 2022 
Q 2144 2022 2061 2097 
Q 1978 2172 1941 2316 
L 1903 2466 
Q 1863 2631 1763 2700 
Q 1659 2766 1491 2766 
Q 1134 2766 889 2455 
Q 644 2144 644 1628 
Q 644 1156 914 781 
Q 1184 406 1644 406 
Q 1969 406 2222 619 
Q 2366 741 2547 1006 
L 2634 953 
Q 2456 578 2259 359 
Q 1881 -59 1384 -59 
Q 897 -59 522 325 
Q 147 709 147 1369 
Q 147 2016 556 2481 
Q 966 2947 1591 2947 
z
M 1453 2947 
L 1453 2947 
z
" transform="scale(0.015625)"/>
       <path id="Times-Roman-6d" d="M 103 81 
Q 347 103 428 163 
Q 553 253 553 525 
L 553 2141 
Q 553 2372 492 2444 
Q 431 2516 291 2516 
Q 225 2516 192 2509 
Q 159 2503 116 2488 
L 116 2597 
L 341 2672 
Q 463 2713 741 2819 
Q 1019 2925 1034 2925 
Q 1050 2925 1053 2909 
Q 1056 2894 1056 2850 
L 1056 2428 
Q 1366 2709 1591 2817 
Q 1816 2925 2053 2925 
Q 2375 2925 2566 2706 
Q 2666 2588 2731 2384 
Q 2963 2619 3134 2731 
Q 3431 2925 3741 2925 
Q 4244 2925 4413 2516 
Q 4509 2284 4509 1784 
L 4509 488 
Q 4509 266 4607 186 
Q 4706 106 4963 81 
L 4963 0 
L 3553 0 
L 3553 88 
Q 3825 113 3911 197 
Q 3997 281 3997 541 
L 3997 1888 
Q 3997 2191 3931 2334 
Q 3816 2591 3478 2591 
Q 3275 2591 3075 2456 
Q 2959 2378 2791 2206 
L 2791 606 
Q 2791 353 2880 222 
Q 2969 91 3256 81 
L 3256 0 
L 1822 0 
L 1822 81 
Q 2119 119 2200 225 
Q 2281 331 2281 747 
L 2281 1622 
Q 2281 2103 2219 2284 
Q 2116 2591 1781 2591 
Q 1591 2591 1406 2486 
Q 1222 2381 1081 2213 
L 1081 503 
Q 1081 266 1164 175 
Q 1247 84 1525 81 
L 1525 0 
L 103 0 
L 103 81 
z
" transform="scale(0.015625)"/>
       <path id="DejaVuSans-2212" d="M 678 2272 
L 4684 2272 
L 4684 1741 
L 678 1741 
L 678 2272 
z
" transform="scale(0.015625)"/>
       <path id="DejaVuSans-31" d="M 794 531 
L 1825 531 
L 1825 4091 
L 703 3866 
L 703 4441 
L 1819 4666 
L 2450 4666 
L 2450 531 
L 3481 531 
L 3481 0 
L 794 0 
L 794 531 
z
" transform="scale(0.015625)"/>
       <path id="Times-Roman-29" d="M 1822 1575 
Q 1822 1109 1700 693 
Q 1578 278 1344 -91 
Q 1097 -484 684 -825 
Q 413 -1050 228 -1141 
L 169 -1038 
Q 650 -672 872 -291 
Q 1266 384 1266 1494 
Q 1266 2391 1084 2959 
Q 831 3763 169 4222 
L 250 4325 
Q 744 4050 1169 3494 
Q 1822 2638 1822 1575 
z
" transform="scale(0.015625)"/>
      </defs>
      <use xlink:href="#DejaVuSans-Oblique-3c9" transform="translate(0 0.684375)"/>
      <use xlink:href="#Times-Roman-20" transform="translate(83.740234 0.684375)"/>
      <use xlink:href="#Times-Roman-28" transform="translate(108.740234 0.684375)"/>
      <use xlink:href="#Times-Roman-63" transform="translate(142.041016 0.684375)"/>
      <use xlink:href="#Times-Roman-6d" transform="translate(186.425781 0.684375)"/>
      <use xlink:href="#DejaVuSans-2212" transform="translate(265.166016 38.965625) scale(0.7)"/>
      <use xlink:href="#DejaVuSans-31" transform="translate(323.818359 38.965625) scale(0.7)"/>
      <use xlink:href="#Times-Roman-29" transform="translate(371.088867 0.684375)"/>
     </g>
    </g>
   </g>
   <g id="matplotlib.axis_2">
    <g id="ytick_1">
     <g id="line2d_4">
      <defs>
       <path id="m6aa12f1ba0" d="M 0 0 
L -3.5 0 
" style="stroke: #000000; stroke-width: 0.8"/>
      </defs>
      <g>
       <use xlink:href="#m6aa12f1ba0" x="66.37" y="263.193437" style="stroke: #000000; stroke-width: 0.8"/>
      </g>
     </g>
     <g id="text_5">
      <!-- 0.0 -->
      <g transform="translate(35.62 269.706875) scale(0.19 -0.19)">
       <defs>
        <path id="Times-Roman-2e" d="M 1044 -75 
Q 894 -75 791 29 
Q 688 134 688 281 
Q 688 428 792 531 
Q 897 634 1044 634 
Q 1191 634 1294 531 
Q 1397 428 1397 281 
Q 1397 134 1295 29 
Q 1194 -75 1044 -75 
z
" transform="scale(0.015625)"/>
       </defs>
       <use xlink:href="#Times-Roman-30"/>
       <use xlink:href="#Times-Roman-2e" x="50"/>
       <use xlink:href="#Times-Roman-30" x="75"/>
      </g>
     </g>
    </g>
    <g id="ytick_2">
     <g id="line2d_5">
      <g>
       <use xlink:href="#m6aa12f1ba0" x="66.37" y="213.297437" style="stroke: #000000; stroke-width: 0.8"/>
      </g>
     </g>
     <g id="text_6">
      <!-- 0.1 -->
      <g transform="translate(35.62 219.810875) scale(0.19 -0.19)">
       <use xlink:href="#Times-Roman-30"/>
       <use xlink:href="#Times-Roman-2e" x="50"/>
       <use xlink:href="#Times-Roman-31" x="75"/>
      </g>
     </g>
    </g>
    <g id="ytick_3">
     <g id="line2d_6">
      <g>
       <use xlink:href="#m6aa12f1ba0" x="66.37" y="163.401437" style="stroke: #000000; stroke-width: 0.8"/>
      </g>
     </g>
     <g id="text_7">
      <!-- 0.2 -->
      <g transform="translate(35.62 169.914875) scale(0.19 -0.19)">
       <use xlink:href="#Times-Roman-30"/>
       <use xlink:href="#Times-Roman-2e" x="50"/>
       <use xlink:href="#Times-Roman-32" x="75"/>
      </g>
     </g>
    </g>
    <g id="ytick_4">
     <g id="line2d_7">
      <g>
       <use xlink:href="#m6aa12f1ba0" x="66.37" y="113.505437" style="stroke: #000000; stroke-width: 0.8"/>
      </g>
     </g>
     <g id="text_8">
      <!-- 0.3 -->
      <g transform="translate(35.62 120.018875) scale(0.19 -0.19)">
       <defs>
        <path id="Times-Roman-33" d="M 497 544 
Q 669 544 951 366 
Q 1234 188 1431 188 
Q 1869 188 2081 483 
Q 2294 778 2294 1125 
Q 2294 1459 2122 1713 
Q 1831 2141 1141 2141 
Q 1100 2141 1062 2139 
Q 1025 2138 975 2131 
L 969 2213 
Q 1469 2394 1756 2628 
Q 2044 2863 2044 3247 
Q 2044 3588 1817 3766 
Q 1591 3944 1300 3944 
Q 956 3944 694 3691 
Q 550 3553 384 3266 
L 288 3288 
Q 413 3763 753 4047 
Q 1094 4331 1541 4331 
Q 2019 4331 2280 4068 
Q 2541 3806 2541 3463 
Q 2541 3159 2325 2906 
Q 2203 2763 1947 2584 
Q 2247 2456 2428 2284 
Q 2769 1956 2769 1453 
Q 2769 859 2301 406 
Q 1834 -47 972 -47 
Q 588 -47 433 67 
Q 278 181 278 313 
Q 278 394 329 469 
Q 381 544 497 544 
z
" transform="scale(0.015625)"/>
       </defs>
       <use xlink:href="#Times-Roman-30"/>
       <use xlink:href="#Times-Roman-2e" x="50"/>
       <use xlink:href="#Times-Roman-33" x="75"/>
      </g>
     </g>
    </g>
    <g id="ytick_5">
     <g id="line2d_8">
      <g>
       <use xlink:href="#m6aa12f1ba0" x="66.37" y="63.609437" style="stroke: #000000; stroke-width: 0.8"/>
      </g>
     </g>
     <g id="text_9">
      <!-- 0.4 -->
      <g transform="translate(35.62 70.122875) scale(0.19 -0.19)">
       <defs>
        <path id="Times-Roman-34" d="M 1866 3650 
L 331 1481 
L 1866 1481 
L 1866 3650 
z
M 2072 4294 
L 2369 4294 
L 2369 1481 
L 3022 1481 
L 3022 1066 
L 2369 1066 
L 2369 0 
L 1872 0 
L 1872 1066 
L 72 1066 
L 72 1481 
L 2072 4294 
z
" transform="scale(0.015625)"/>
       </defs>
       <use xlink:href="#Times-Roman-30"/>
       <use xlink:href="#Times-Roman-2e" x="50"/>
       <use xlink:href="#Times-Roman-34" x="75"/>
      </g>
     </g>
    </g>
    <g id="ytick_6">
     <g id="line2d_9">
      <g>
       <use xlink:href="#m6aa12f1ba0" x="66.37" y="13.713437" style="stroke: #000000; stroke-width: 0.8"/>
      </g>
     </g>
     <g id="text_10">
      <!-- 0.5 -->
      <g transform="translate(35.62 20.226875) scale(0.19 -0.19)">
       <defs>
        <path id="Times-Roman-35" d="M 478 572 
Q 656 572 945 370 
Q 1234 169 1391 169 
Q 1750 169 2019 486 
Q 2288 803 2288 1266 
Q 2288 2075 1425 2431 
Q 947 2628 534 2628 
Q 466 2628 448 2633 
Q 431 2638 406 2666 
Q 413 2691 417 2708 
Q 422 2725 428 2741 
L 1109 4234 
L 2450 4234 
Q 2550 4234 2604 4268 
Q 2659 4303 2747 4397 
L 2797 4353 
L 2553 3775 
Q 2541 3747 2484 3739 
Q 2428 3731 2363 3731 
L 1153 3731 
L 888 3184 
Q 1400 3097 1638 3019 
Q 2028 2888 2291 2631 
Q 2516 2409 2631 2132 
Q 2747 1856 2747 1547 
Q 2747 856 2255 393 
Q 1763 -69 1009 -69 
Q 703 -69 516 -9 
Q 203 88 203 338 
Q 203 431 270 501 
Q 338 572 478 572 
z
" transform="scale(0.015625)"/>
       </defs>
       <use xlink:href="#Times-Roman-30"/>
       <use xlink:href="#Times-Roman-2e" x="50"/>
       <use xlink:href="#Times-Roman-35" x="75"/>
      </g>
     </g>
    </g>
    <g id="text_11">
     <!-- $J_{{eff}}$ ($10^{-7}$ a.u.) -->
     <g transform="translate(26.828125 206.653437) rotate(-90) scale(0.22 -0.22)">
      <defs>
       <path id="DejaVuSans-Oblique-4a" d="M 1069 4666 
L 1703 4666 
L 856 325 
Q 691 -522 298 -901 
Q -94 -1281 -800 -1281 
L -1050 -1281 
L -947 -750 
L -750 -750 
Q -328 -750 -109 -509 
Q 109 -269 225 325 
L 1069 4666 
z
" transform="scale(0.015625)"/>
       <path id="DejaVuSans-Oblique-65" d="M 3078 2063 
Q 3088 2113 3092 2166 
Q 3097 2219 3097 2272 
Q 3097 2653 2873 2875 
Q 2650 3097 2266 3097 
Q 1838 3097 1509 2826 
Q 1181 2556 1013 2059 
L 3078 2063 
z
M 3578 1613 
L 903 1613 
Q 884 1494 878 1425 
Q 872 1356 872 1306 
Q 872 872 1139 634 
Q 1406 397 1894 397 
Q 2269 397 2603 481 
Q 2938 566 3225 728 
L 3116 159 
Q 2806 34 2476 -28 
Q 2147 -91 1806 -91 
Q 1078 -91 686 257 
Q 294 606 294 1247 
Q 294 1794 489 2264 
Q 684 2734 1063 3103 
Q 1306 3334 1642 3459 
Q 1978 3584 2356 3584 
Q 2950 3584 3301 3228 
Q 3653 2872 3653 2272 
Q 3653 2128 3634 1964 
Q 3616 1800 3578 1613 
z
" transform="scale(0.015625)"/>
       <path id="DejaVuSans-Oblique-66" d="M 3059 4863 
L 2969 4384 
L 2419 4384 
Q 2106 4384 1964 4261 
Q 1822 4138 1753 3809 
L 1691 3500 
L 2638 3500 
L 2553 3053 
L 1606 3053 
L 1013 0 
L 434 0 
L 1031 3053 
L 481 3053 
L 563 3500 
L 1113 3500 
L 1159 3744 
Q 1278 4363 1576 4613 
Q 1875 4863 2516 4863 
L 3059 4863 
z
" transform="scale(0.015625)"/>
       <path id="DejaVuSans-30" d="M 2034 4250 
Q 1547 4250 1301 3770 
Q 1056 3291 1056 2328 
Q 1056 1369 1301 889 
Q 1547 409 2034 409 
Q 2525 409 2770 889 
Q 3016 1369 3016 2328 
Q 3016 3291 2770 3770 
Q 2525 4250 2034 4250 
z
M 2034 4750 
Q 2819 4750 3233 4129 
Q 3647 3509 3647 2328 
Q 3647 1150 3233 529 
Q 2819 -91 2034 -91 
Q 1250 -91 836 529 
Q 422 1150 422 2328 
Q 422 3509 836 4129 
Q 1250 4750 2034 4750 
z
" transform="scale(0.015625)"/>
       <path id="DejaVuSans-37" d="M 525 4666 
L 3525 4666 
L 3525 4397 
L 1831 0 
L 1172 0 
L 2766 4134 
L 525 4134 
L 525 4666 
z
" transform="scale(0.015625)"/>
       <path id="Times-Roman-61" d="M 1834 1731 
Q 1475 1613 1241 1469 
Q 791 1191 791 838 
Q 791 553 978 419 
Q 1100 331 1250 331 
Q 1456 331 1645 447 
Q 1834 563 1834 741 
L 1834 1731 
z
M 234 622 
Q 234 1075 688 1378 
Q 975 1566 1834 1888 
L 1834 2153 
Q 1834 2472 1772 2597 
Q 1666 2806 1331 2806 
Q 1172 2806 1028 2725 
Q 884 2641 884 2494 
Q 884 2456 900 2367 
Q 916 2278 916 2253 
Q 916 2078 800 2009 
Q 734 1969 644 1969 
Q 503 1969 428 2061 
Q 353 2153 353 2266 
Q 353 2484 623 2723 
Q 894 2963 1416 2963 
Q 2022 2963 2238 2569 
Q 2353 2353 2353 1941 
L 2353 688 
Q 2353 506 2378 438 
Q 2419 316 2547 316 
Q 2619 316 2666 337 
Q 2713 359 2828 444 
L 2828 281 
Q 2728 159 2613 81 
Q 2438 -38 2256 -38 
Q 2044 -38 1948 100 
Q 1853 238 1844 428 
Q 1606 222 1438 122 
Q 1153 -47 897 -47 
Q 628 -47 431 142 
Q 234 331 234 622 
z
M 1425 2963 
L 1425 2963 
z
" transform="scale(0.015625)"/>
       <path id="Times-Roman-75" d="M 991 2894 
L 991 894 
Q 991 681 1050 553 
Q 1166 316 1475 316 
Q 1688 316 1891 456 
Q 2006 534 2125 672 
L 2125 2384 
Q 2125 2625 2031 2700 
Q 1938 2775 1656 2791 
L 1656 2894 
L 2666 2894 
L 2666 694 
Q 2666 481 2742 401 
Q 2819 322 3066 331 
L 3066 244 
Q 2894 197 2812 173 
Q 2731 150 2541 88 
Q 2459 59 2184 -47 
Q 2169 -47 2166 -33 
Q 2163 -19 2163 0 
L 2163 503 
Q 1950 250 1775 128 
Q 1509 -59 1213 -59 
Q 941 -59 700 134 
Q 456 325 456 775 
L 456 2397 
Q 456 2647 350 2731 
Q 281 2784 56 2806 
L 56 2894 
L 991 2894 
z
M 1603 2931 
L 1603 2931 
z
" transform="scale(0.015625)"/>
      </defs>
      <use xlink:href="#DejaVuSans-Oblique-4a" transform="translate(0 0.684375)"/>
      <use xlink:href="#DejaVuSans-Oblique-65" transform="translate(29.492188 -15.721875) scale(0.7)"/>
      <use xlink:href="#DejaVuSans-Oblique-66" transform="translate(72.558594 -15.721875) scale(0.7)"/>
      <use xlink:href="#DejaVuSans-Oblique-66" transform="translate(97.202148 -15.721875) scale(0.7)"/>
      <use xlink:href="#Times-Roman-20" transform="translate(124.580078 0.684375)"/>
      <use xlink:href="#Times-Roman-28" transform="translate(149.580078 0.684375)"/>
      <use xlink:href="#DejaVuSans-31" transform="translate(182.880859 0.684375)"/>
      <use xlink:href="#DejaVuSans-30" transform="translate(246.503906 0.684375)"/>
      <use xlink:href="#DejaVuSans-2212" transform="translate(311.083984 38.965625) scale(0.7)"/>
      <use xlink:href="#DejaVuSans-37" transform="translate(369.736328 38.965625) scale(0.7)"/>
      <use xlink:href="#Times-Roman-20" transform="translate(417.006836 0.684375)"/>
      <use xlink:href="#Times-Roman-61" transform="translate(442.006836 0.684375)"/>
      <use xlink:href="#Times-Roman-2e" transform="translate(486.391602 0.684375)"/>
      <use xlink:href="#Times-Roman-75" transform="translate(511.391602 0.684375)"/>
      <use xlink:href="#Times-Roman-2e" transform="translate(561.391602 0.684375)"/>
      <use xlink:href="#Times-Roman-29" transform="translate(586.391602 0.684375)"/>
     </g>
    </g>
   </g>
   <g id="line2d_10">
    <path d="M -1 146.447322 
L 4.431796 128.399395 
L 9.8725 105.904854 
L 15.312693 77.528728 
L 20.753398 41.216907 
L 25.625222 -1 
M 110.444782 -1 
L 113.241796 25.221516 
L 118.6825 64.226698 
L 124.122693 94.462194 
L 129.563398 118.2197 
L 135.003591 137.129683 
L 140.444807 152.359587 
L 145.885 164.75343 
L 151.325704 174.933044 
L 156.765898 183.361289 
L 162.206602 190.382996 
L 167.646796 196.266429 
L 173.0875 201.211245 
L 178.528204 205.378745 
L 183.968398 208.89009 
L 189.409102 211.845771 
L 194.849296 214.317713 
L 200.29 216.369739 
L 205.730193 218.056362 
L 211.170898 219.400382 
L 216.611091 220.446719 
L 222.051796 221.194392 
L 227.4925 221.690293 
L 232.932693 221.941095 
L 238.373398 221.90611 
L 243.814102 221.632567 
L 249.254807 221.111045 
L 254.695 220.314563 
L 260.135704 219.227949 
L 265.575898 217.832437 
L 271.016602 216.103893 
L 276.456796 213.993466 
L 281.8975 211.45549 
L 287.338204 208.428245 
L 292.778398 204.830063 
L 298.219102 200.561398 
L 303.659296 195.494037 
L 309.1 189.465754 
L 314.540193 182.264308 
L 319.980898 173.614284 
L 325.67 162.572331 
L 325.67 162.572331 
" clip-path="url(#p44526031a7)" style="fill: none; stroke: #0000ff; stroke-opacity: 0.8; stroke-width: 2.5; stroke-linecap: square"/>
   </g>
   <g id="line2d_11">
    <path d="M -1 127.430012 
L 4.431796 104.62792 
L 9.8725 75.775134 
L 15.312693 38.795613 
L 19.815869 -1 
M 105.01004 -1 
L 107.801091 23.731389 
L 113.241796 60.81875 
L 118.6825 89.753199 
L 124.122693 112.65758 
L 129.563398 131.049337 
L 135.003591 146.020076 
L 140.444807 158.36322 
L 145.885 168.657826 
L 151.325704 177.334735 
L 156.765898 184.714104 
L 162.206602 191.036369 
L 167.646796 196.483142 
L 173.0875 201.19251 
L 178.528204 205.270354 
L 183.968398 208.798356 
L 189.409102 211.839704 
L 194.849296 214.443636 
L 200.29 216.648368 
L 205.730193 218.483845 
L 211.170898 219.973269 
L 216.611091 221.134606 
L 222.051796 221.981404 
L 227.4925 222.523499 
L 232.932693 222.767642 
L 238.373398 222.717511 
L 243.814102 222.374145 
L 249.254807 221.735722 
L 254.695 220.797479 
L 260.135704 219.55135 
L 265.575898 217.985418 
L 271.016602 216.083138 
L 276.456796 213.822313 
L 281.8975 211.173579 
L 287.338204 208.098381 
L 292.778398 204.546279 
L 298.219102 200.451352 
L 303.659296 195.727771 
L 309.1 190.263488 
L 314.540193 183.911845 
L 319.980898 176.480131 
L 325.67 167.236061 
L 325.67 167.236061 
" clip-path="url(#p44526031a7)" style="fill: none; stroke: #008000; stroke-opacity: 0.8; stroke-width: 2.5; stroke-linecap: square"/>
   </g>
   <g id="line2d_12">
    <path d="M 99.768316 -1 
L 102.360898 15.043414 
L 107.801091 43.795027 
L 113.241796 68.434598 
L 118.6825 89.638927 
L 124.122693 107.966538 
L 129.563398 123.875784 
L 135.003591 137.741045 
L 140.444807 149.868574 
L 145.885 160.505925 
L 151.325704 169.858436 
L 156.765898 178.093937 
L 162.206602 185.350979 
L 167.646796 191.744587 
L 173.0875 197.369959 
L 178.528204 202.305689 
L 183.968398 206.616805 
L 189.409102 210.357528 
L 194.849296 213.573019 
L 200.29 216.300698 
L 205.730193 218.571061 
L 211.170898 220.409071 
L 216.611091 221.834539 
L 222.051796 222.863032 
L 227.4925 223.506003 
L 232.932693 223.771281 
L 238.373398 223.663072 
L 243.814102 223.182096 
L 249.254807 222.325803 
L 254.695 221.087979 
L 260.135704 219.458798 
L 265.575898 217.424445 
L 271.016602 214.96656 
L 276.456796 212.061647 
L 281.8975 208.680428 
L 287.338204 204.786984 
L 292.778398 200.337529 
L 298.219102 195.279138 
L 303.659296 189.54787 
L 309.1 183.066333 
L 314.540193 175.74051 
L 319.980898 167.456176 
L 325.67 157.587011 
L 325.67 157.587011 
" clip-path="url(#p44526031a7)" style="fill: none; stroke: #ff0000; stroke-opacity: 0.8; stroke-width: 2.5; stroke-linecap: square"/>
   </g>
   <g id="line2d_13">
    <path d="M 94.422308 -1 
L 96.920193 10.087074 
L 102.360898 32.476181 
L 107.801091 53.113211 
L 113.241796 72.051727 
L 118.6825 89.368287 
L 124.122693 105.154804 
L 129.563398 119.514237 
L 135.003591 132.55138 
L 140.444807 144.367498 
L 145.885 155.055534 
L 151.325704 164.706227 
L 156.765898 173.403041 
L 162.206602 181.221306 
L 167.646796 188.228229 
L 173.0875 194.483712 
L 178.528204 200.040686 
L 183.968398 204.944865 
L 189.409102 209.235671 
L 194.849296 212.947449 
L 200.29 216.110418 
L 205.730193 218.750704 
L 211.170898 220.890422 
L 216.611091 222.547609 
L 222.051796 223.736559 
L 227.4925 224.46804 
L 232.932693 224.749467 
L 238.373398 224.585002 
L 243.814102 223.975472 
L 249.254807 222.918631 
L 254.695 221.408874 
L 260.135704 219.437293 
L 265.575898 216.991523 
L 271.016602 214.055564 
L 276.456796 210.609512 
L 281.8975 206.629307 
L 287.338204 202.086711 
L 292.778398 196.948994 
L 298.219102 191.178033 
L 303.659296 184.729206 
L 309.1 177.551009 
L 314.540193 169.586168 
L 319.980898 160.771269 
L 325.67 150.543993 
L 325.67 150.543993 
" clip-path="url(#p44526031a7)" style="fill: none; stroke: #8a2be2; stroke-opacity: 0.8; stroke-width: 2.5; stroke-linecap: square"/>
   </g>
   <g id="line2d_14">
    <path d="M 84.430717 -1 
L 91.48 20.092653 
L 96.920193 36.102451 
L 102.360898 51.717235 
L 107.801091 66.822177 
L 113.241796 81.323694 
L 118.6825 95.150159 
L 124.122693 108.25448 
L 129.563398 120.61225 
L 135.003591 132.213871 
L 140.444807 143.058398 
L 145.885 153.148694 
L 151.325704 162.495936 
L 156.765898 171.114438 
L 162.206602 179.021474 
L 167.646796 186.236237 
L 173.0875 192.778792 
L 178.528204 198.669786 
L 183.968398 203.93043 
L 189.409102 208.581241 
L 194.849296 212.641105 
L 200.29 216.12676 
L 205.730193 219.053133 
L 211.170898 221.433477 
L 216.611091 223.27932 
L 222.051796 224.600376 
L 227.4925 225.404334 
L 232.932693 225.696754 
L 238.373398 225.481182 
L 243.814102 224.758916 
L 249.254807 223.529397 
L 254.695 221.789796 
L 260.135704 219.535245 
L 265.575898 216.758829 
L 271.016602 213.451697 
L 276.456796 209.603207 
L 281.8975 205.201264 
L 287.338204 200.232473 
L 292.778398 194.681704 
L 298.219102 188.531709 
L 303.659296 181.763385 
L 309.1 174.35754 
L 314.540193 166.296617 
L 319.980898 157.564958 
L 325.67 147.685572 
L 325.67 147.685572 
" clip-path="url(#p44526031a7)" style="fill: none; stroke: #ff8c00; stroke-opacity: 0.8; stroke-width: 2.5; stroke-linecap: square"/>
   </g>
   <g id="patch_3">
    <path d="M 66.37 263.193437 
L 66.37 13.713437 
" style="fill: none; stroke: #000000; stroke-width: 0.8; stroke-linejoin: miter; stroke-linecap: square"/>
   </g>
   <g id="patch_4">
    <path d="M 317.47 263.193437 
L 317.47 13.713437 
" style="fill: none; stroke: #000000; stroke-width: 0.8; stroke-linejoin: miter; stroke-linecap: square"/>
   </g>
   <g id="patch_5">
    <path d="M 66.37 263.193437 
L 317.47 263.193437 
" style="fill: none; stroke: #000000; stroke-width: 0.8; stroke-linejoin: miter; stroke-linecap: square"/>
   </g>
   <g id="patch_6">
    <path d="M 66.37 13.713437 
L 317.47 13.713437 
" style="fill: none; stroke: #000000; stroke-width: 0.8; stroke-linejoin: miter; stroke-linecap: square"/>
   </g>
   <g id="legend_1">
    <g id="text_12">
     <!-- $\sigma$ (cm$^{-1}$) -->
     <g transform="translate(246.22 40.14625) scale(0.15 -0.15)">
      <defs>
       <path id="DejaVuSans-Oblique-3c3" d="M 2219 3044 
Q 1744 3044 1422 2700 
Q 1081 2341 969 1747 
Q 844 1119 1044 756 
Q 1241 397 1706 397 
Q 2166 397 2503 759 
Q 2844 1122 2966 1747 
Q 3075 2319 2881 2700 
Q 2700 3044 2219 3044 
z
M 2309 3503 
L 4219 3500 
L 4106 2925 
L 3463 2925 
Q 3706 2438 3575 1747 
Q 3406 888 2884 400 
Q 2359 -91 1609 -91 
Q 856 -91 525 400 
Q 194 888 363 1747 
Q 528 2609 1050 3097 
Q 1484 3503 2309 3503 
z
" transform="scale(0.015625)"/>
      </defs>
      <use xlink:href="#DejaVuSans-Oblique-3c3" transform="translate(0 0.684375)"/>
      <use xlink:href="#Times-Roman-20" transform="translate(63.378906 0.684375)"/>
      <use xlink:href="#Times-Roman-28" transform="translate(88.378906 0.684375)"/>
      <use xlink:href="#Times-Roman-63" transform="translate(121.679688 0.684375)"/>
      <use xlink:href="#Times-Roman-6d" transform="translate(166.064453 0.684375)"/>
      <use xlink:href="#DejaVuSans-2212" transform="translate(244.804688 38.965625) scale(0.7)"/>
      <use xlink:href="#DejaVuSans-31" transform="translate(303.457031 38.965625) scale(0.7)"/>
      <use xlink:href="#Times-Roman-29" transform="translate(350.727539 0.684375)"/>
     </g>
    </g>
    <g id="line2d_15">
     <path d="M 254.095 51.663437 
L 261.595 51.663437 
L 269.095 51.663437 
" style="fill: none; stroke: #0000ff; stroke-opacity: 0.8; stroke-width: 2.5; stroke-linecap: square"/>
    </g>
    <g id="text_13">
     <!-- 0 -->
     <g transform="translate(281.095 56.913437) scale(0.15 -0.15)">
      <use xlink:href="#Times-Roman-30"/>
     </g>
    </g>
    <g id="line2d_16">
     <path d="M 254.095 68.430625 
L 261.595 68.430625 
L 269.095 68.430625 
" style="fill: none; stroke: #008000; stroke-opacity: 0.8; stroke-width: 2.5; stroke-linecap: square"/>
    </g>
    <g id="text_14">
     <!-- 10 -->
     <g transform="translate(281.095 73.680625) scale(0.15 -0.15)">
      <use xlink:href="#Times-Roman-31"/>
      <use xlink:href="#Times-Roman-30" x="50"/>
     </g>
    </g>
    <g id="line2d_17">
     <path d="M 254.095 85.197812 
L 261.595 85.197812 
L 269.095 85.197812 
" style="fill: none; stroke: #ff0000; stroke-opacity: 0.8; stroke-width: 2.5; stroke-linecap: square"/>
    </g>
    <g id="text_15">
     <!-- 20 -->
     <g transform="translate(281.095 90.447812) scale(0.15 -0.15)">
      <use xlink:href="#Times-Roman-32"/>
      <use xlink:href="#Times-Roman-30" x="50"/>
     </g>
    </g>
    <g id="line2d_18">
     <path d="M 254.095 101.965 
L 261.595 101.965 
L 269.095 101.965 
" style="fill: none; stroke: #8a2be2; stroke-opacity: 0.8; stroke-width: 2.5; stroke-linecap: square"/>
    </g>
    <g id="text_16">
     <!-- 30 -->
     <g transform="translate(281.095 107.215) scale(0.15 -0.15)">
      <use xlink:href="#Times-Roman-33"/>
      <use xlink:href="#Times-Roman-30" x="50"/>
     </g>
    </g>
    <g id="line2d_19">
     <path d="M 254.095 118.732187 
L 261.595 118.732187 
L 269.095 118.732187 
" style="fill: none; stroke: #ff8c00; stroke-opacity: 0.8; stroke-width: 2.5; stroke-linecap: square"/>
    </g>
    <g id="text_17">
     <!-- 40 -->
     <g transform="translate(281.095 123.982187) scale(0.15 -0.15)">
      <use xlink:href="#Times-Roman-34"/>
      <use xlink:href="#Times-Roman-30" x="50"/>
     </g>
    </g>
   </g>
  </g>
 </g>
 <defs>
  <clipPath id="p44526031a7">
   <rect x="66.37" y="13.713437" width="251.1" height="249.48"/>
  </clipPath>
 </defs>
</svg>
